<?xml version="1.0" encoding="iso-8859-1"?>
<!-- Generator: Adobe Illustrator 25.2.0, SVG Export Plug-In . SVG Version: 6.00 Build 0)  -->
<svg version="1.1" xmlns="http://www.w3.org/2000/svg" xmlns:xlink="http://www.w3.org/1999/xlink" x="0px" y="0px"
	 viewBox="0 0 848.74469 600" enable-background="new 0 0 848.74469 600" xml:space="preserve">
<g id="Layer_1">
	<path fill="#1D1D91" d="M120.15071,539.94769c3.87061-3.87115,8.58313-9.37482,10.33847-13.03448
		c1.08217-2.23328,1.18031-4.15967,0.28546-5.70923c-0.87299-1.55389-2.48248-2.34998-4.78474-2.39697
		c-3.63023-0.10376-8.45989,0.50494-11.34021,0.86676c-3.30423,0.39966-32.31943,3.40088-35.79343-16.12219
		c-1.85262-10.46536,8.44855-19.33029,28.39906-33.10477c14.00837-9.70053,25.6639-23.28732,45.12038-29.06396
		c17.76401-5.26236,37.93956-8.94577,55.77095-12.13266c7.76811-1.36789,17.48254-2.63287,25.32558-4.19711
		c19.72565-3.94519,42.43619-6.0018,64.55161-12.57352c7.81055-2.30707,15.14096-4.7468,21.8382-7.28912
		c20.32361-7.71793,63.04684-28.64734,65.25204-44.11035c0.43802-2.96942,0.12589-5.01947-0.87119-6.04947
		c-3.44833-3.56775-14.02182-2.03442-32.29303,2.03354c-18.66037,4.16714-37.95465,8.45889-42.42142-5.4884
		c-1.37958-4.2468-1.04129-8.76312,0.95639-13.03802c9.35895-19.95673,35.28177-21.87738,106.94919-38.38574
		c2.06409-0.58734-11.07379,2.66464-9.01401,2.05545c65.5643-19.44629,175.66037,10.5257,197.21829-8.69678
		c0.15027-0.13403,0.12744-0.15591,0,0c-25.23035,30.8551-118.97873,3.68658-176.80936,12.98349
		c-1.74515,0.59274-4.59653,1.44833-8.58493,2.6409c-35.57211,10.64691-93.90601,16.72864-101.98453,33.95905
		c-1.27612,2.74817-0.95035,4.63663-0.50912,5.95752l0.15582,0.44614l0.3002,0.37234
		c0.74841,0.91998,5.09436,2.08832,12.39218,1.56204c6.10925-0.45154,28.97766-7.9451,36.39285-9.60687
		c17.53232-3.90002,15.50378-1.23099,23.07974,6.58832c2.25101,2.32736,4.73529,6.76569,3.60849,14.54736
		c-2.89401,20.27527-45.73233,41.65869-70.60092,51.08725c-6.86783,2.59854-14.40823,5.12494-22.38934,7.48825
		c-22.41714,6.65369-44.94073,11.1488-64.80183,15.0979c-7.95232,1.58572-15.97844,3.02704-23.7684,4.39923
		c-18.64445,3.32401-36.28342,6.45038-53.40454,11.51828c-18.68246,5.5564-26.91014,14.63519-40.48058,24.02261
		c-5.73644,3.96542-13.12579,10.0806-18.6383,16.34042c-2.31254,2.62714-4.73148,7.45905-3.33263,12.9686
		c0.00858,0.03375,0.02829,0.06628,0.05402,0.08975c6.10913,5.57062,11.08021,3.46338,11.6687,3.46091
		c2.68353-0.13156,1.65901,0.06308,1.99233-0.02832c0.94422-0.16287,2.59597-1.33188,3.57065-1.45535
		c8.95127-1.12366,17.89845,0.15771,23.40331,5.40994c1.75948,1.6748,3.89426,4.79694,3.98152,10.09235
		c0.21095,11.46906-17.05408,24.35248-35.74553,36.56274c-20.24702,12.41663-44.39073,22.89484-71.75169,31.1214
		c-0.12715,0.03827-0.25845-0.08435-0.21083-0.20831c2.60138-6.77075,39.99032-17.32422,54.88154-26.84705
		c0.00768-0.00494,0.01466-0.01031,0.02139-0.01642c10.40245-9.45093,23.68111-15.66113,34.08858-26.10419"/>
	<g>
		<defs>
			<rect id="SVGID_3_" x="23.53244" y="8.77193" width="273.74057" height="582.45612"/>
		</defs>
		<clipPath id="SVGID_1_">
			<use xlink:href="#SVGID_3_"  overflow="visible"/>
		</clipPath>
		<g clip-path="url(#SVGID_1_)">
			<path fill="#0A5CA0" d="M62.2277,513.8598l16.53712-39.87659l-3.61804,2.65454
				c0.91336-9.46774-8.10723-32.70563-6.65923-44.66843c4.2772-35.7547,18.28178-79.77536,35.01186-119.60675
				c0.62376-1.53711,4.35172,22.74606,5.02003,21.18668c0.57921-1.33661-3.67571-23.76962-3.07423-25.12854
				c20.82906-47.89566,49.72098-99.29872,76.56485-142.739c1.02475-1.69305,4.791,15.60381,5.83801,13.93303
				c0.98019-1.5594-5.01234-14.94792-4.05443-16.48503C237.65959,77.36301,297.92496,9.29874,297.92496,9.29874
				c-3.83167,98.57601-34.80267,186.66737-65.94601,260.69406l-55.67039,44.06403l55.48874-40.37509
				c-38.16061,84.40778-86.32019,182.54733-120.49321,200.30215c-23.74735,12.31921-30.72008,40.9007-34.70767,48.49713
				c-7.50737,19.73749-14.92563,40.83386-20.45034,59.94763l-26.93297,8.30933L62.2277,513.8598"/>
		</g>
	</g>
	<path display="none" fill="#1D1D91" d="M124.48727,557.20251c4.54452-3.05194,10.23-7.54346,12.65821-10.7959
		c1.49255-1.98267,1.96037-3.85394,1.38116-5.547c-0.55692-1.69305-1.98265-2.78461-4.23264-3.27472
		c-3.54205-0.802-8.39845-1.13611-11.29447-1.33661c-3.31928-0.24506-32.36858-2.89606-32.01214-22.7226
		c0.20049-10.62619,9.81142-24.51614,32.04394-34.18439c15.61622-6.8168,31.8798-10.72247,52.08511-12.63831
		c18.4454-1.73761,38.95258-1.46082,57.06383-1.14893c7.88608,0.15591,17.66211,0.78821,25.65958,0.76593
		c20.11618-0.06683,42.797,2.2951,65.76465,0.11194c8.10886-0.75742,15.77219-1.73761,22.83401-2.94055
		c21.43051-3.65344,67.38812-15.95038,72.53412-30.69781c1.00247-2.82919,1.09158-4.90094,0.31186-6.10391
		c-2.6955-4.1658-13.36621-4.70047-32.07895-4.23264c-19.11374,0.49008-38.87347,0.98019-40.56656-13.56674
		c-0.53464-4.43314,0.66833-8.79944,3.45297-12.60883c13.03207-17.7771,30.68405-26.47208,104.18982-28.84879
		c2.13861-0.17822,4.29947-0.35645,6.43808-0.55692c69.74951-6.59402,116.19714-28.22507,140.61285-42.97247
		c-30.72009,26.15329-76.69995,43.59622-137.09308,51.9501c-1.82672,0.24506-4.78958,0.53467-8.93311,0.93564
		c-36.95764,3.58661-87.21472,10.1138-98.46463,25.46271c-1.78217,2.45047-1.82672,4.3663-1.6485,5.74747l0.06683,0.46783
		l0.22275,0.42325c0.55695,1.04703,4.59598,3.03159,11.85831,3.92267c6.08163,0.73514,29.96591-2.20734,37.56238-2.40784
		c17.95532-0.44553,15.45013,1.78217,21.37585,10.91577c1.75989,2.7178,3.34155,7.55194,0.73514,14.97018
		c-6.74997,19.33649-52.90805,32.0567-79.12814,36.51212c-7.24005,1.22525-15.12613,2.24997-23.41321,3.02969
		c-23.27951,2.20541-46.24716,2.27225-66.49704,2.3168c-8.10884,0.02228-16.26224-0.11139-24.17061-0.26733
		c-18.9355-0.33414-36.84625-0.6683-54.62335,1.00247c-19.40332,1.849-35.50964,5.76978-50.63577,12.36377
		c-6.39352,2.78464-13.83406,6.32669-20.45035,11.40585c-2.78463,2.13861-8.53211,6.54947-8.19796,12.25241
		c0.51237,8.64349,17.95817,9.89752,18.53737,10.00885c2.65852,0.38843,1.6157,0.38184,1.96039,0.35645
		c0.95791,0.02228,2.8041-0.80621,3.78429-0.73938c8.99994,0.62378,17.532,3.60663,21.92058,9.82196
		c1.40346,1.98267,2.89603,5.45789,1.96039,10.67072c-2.00494,11.29443-21.43053,20.60626-42.12593,28.98242
		c-22.34389,8.30939-48.16301,13.9455-76.72221,16.7301c2.85147-6.32666,42.50465-9.46777,59.19016-16.03949
		c12.03233-7.27209,26.26466-10.80438,38.49477-19.04688"/>
	<path fill="#1183C9" d="M269.96133,62.50421c-3.80939,7.03955-56.31642,102.85321-99.19977,189.6001L114.2001,380.79892
		L60.8688,511.67667L29.21309,590.7157l12.05228-5.00208C73.94582,440.64539,279.1395,45.61819,269.96133,62.50421"/>
</g>
<g id="Layer_2">
	<g>
		<rect x="297.27301" y="119.80698" fill="none" width="842" height="504"/>
		<path d="M315.96875,289.54395V119.80371h104.05811v24.84619h-75.52197v48.70801h68.14209v24.6001h-68.14209v71.58594H315.96875z"
			/>
		<path d="M487.18311,146.61816h-28.78174v-26.81445h28.78174V146.61816z M485.95361,289.54395h-26.32227v-123h26.32227V289.54395z"
			/>
		<path d="M559.50537,289.54395h-26.32129v-123h25.8291v11.06982c6.55762-8.85596,16.72852-13.28369,30.50488-13.28369
			c14.10254,0,25.0918,3.97803,32.96387,11.93066c7.87207,7.95654,11.80762,20.04932,11.80762,36.28516v76.99805h-26.07617v-74.0459
			c0-18.53076-7.79102-27.79834-23.37012-27.79834c-7.87207,0-14.06348,2.50244-18.57227,7.50342
			c-4.5127,5.00439-6.76562,11.68457-6.76562,20.04883V289.54395z"/>
		<path d="M751.38281,175.15381v-55.3501h26.07617v169.74023h-26.07617v-8.60986c-6.88818,7.21826-16.729,10.82373-29.521,10.82373
			c-15.58203,0-27.63574-5.00049-36.16113-15.00586c-8.5293-10.00146-12.79199-23.53125-12.79199-40.58984v-16.72803
			c0-17.38135,4.34277-30.91162,13.03711-40.59033c8.69141-9.67432,20.66406-14.51367,35.91602-14.51367
			C734.65381,164.33008,744.49463,167.93945,751.38281,175.15381z M725.30615,269.12598
			c17.38184,0,26.07666-11.39697,26.07666-34.19385v-15.74414c0-10.16699-2.25732-18.03857-6.76514-23.61621
			c-4.5127-5.57324-10.94727-8.36377-19.31152-8.36377c-17.55078,0-26.32227,11.1543-26.32227,33.45605v14.26807
			c0,10.6626,2.21484,19.02637,6.64258,25.0918C710.0542,266.09326,716.61182,269.12598,725.30615,269.12598z"/>
		<path d="M434.29492,467.64746h-27.55176c-4.2666-20.00684-15.66357-30.0127-34.19434-30.0127
			c-11.80811,0-20.58301,4.14355-26.32178,12.42383c-5.74268,8.2832-8.60986,21.27832-8.60986,38.99023v21.64844
			c0,34.27832,11.64258,51.41406,34.93164,51.41406c9.6748,0,17.22021-2.41797,22.63232-7.25684
			c5.41162-4.83594,9.26318-12.42285,11.56201-22.75488h27.30566c-5.41211,36.57324-25.91455,54.85742-61.5,54.85742
			c-20.17188,0-35.79297-6.39551-46.86279-19.1875c-11.07031-12.79199-16.60498-31.81543-16.60498-57.07227v-21.64844
			c0-25.25293,5.53467-44.2793,16.60498-57.07129c11.06982-12.79199,26.69092-19.18848,46.86279-19.18848
			c17.22021,0,31.11914,4.63574,41.69727,13.89941C424.82373,435.95508,431.50439,449.6084,434.29492,467.64746z"/>
		<path d="M533.67627,522.75098h-29.27344v61.99219h-28.53662V415.00293h57.81006c19.8418,0,35.2168,4.63574,46.125,13.89941
			c10.90527,9.26758,16.35938,22.50879,16.35938,39.72852c0,17.2207-5.49707,30.54688-16.48242,39.97559
			C568.68896,518.03906,553.35596,522.75098,533.67627,522.75098z M504.40283,439.84961v58.30176h26.32129
			c24.60059,0,36.90039-9.83984,36.90039-29.52051c0-19.1875-12.2998-28.78125-36.90039-28.78125H504.40283z"/>
		<path d="M693.57373,584.74316h-57.31738V415.00293h57.31738c42.47363,0,63.71436,24.93066,63.71436,74.78418v20.17188
			C757.28809,559.81641,736.04736,584.74316,693.57373,584.74316z M664.79248,560.14355h28.78125
			c12.13477,0,21.0332-4.01758,26.69141-12.05469c5.6582-8.0332,8.4873-20.74414,8.4873-38.12988v-20.17188
			c0-17.38184-2.8291-30.05078-8.4873-38.00684c-5.6582-7.95312-14.55664-11.93066-26.69141-11.93066h-28.78125V560.14355z"/>
	</g>
	<g>
	</g>
	<g>
	</g>
	<g>
	</g>
	<g>
	</g>
	<g>
	</g>
	<g>
	</g>
</g>
</svg>
