<?xml version="1.0" encoding="iso-8859-1"?>
<!-- Generator: Adobe Illustrator 25.2.0, SVG Export Plug-In . SVG Version: 6.00 Build 0)  -->
<svg version="1.1" xmlns="http://www.w3.org/2000/svg" xmlns:xlink="http://www.w3.org/1999/xlink" x="0px" y="0px"
	 viewBox="0 0 1266.89368 287.59573" enable-background="new 0 0 1266.89368 287.59573" xml:space="preserve">
<g id="Layer_1">
	<path fill="#1D1D91" d="M106.98727,219.49878c-8.92973-3.13843-17.26387-6.69026-26.99032-5.59464
		c-0.00581,0.00066-0.01118-0.0045-0.01694-0.00352c-3.34069,0.57266-53.67718,15.24734-57.06888,12.05682
		c-0.06208-0.0584,2.44473-1.90419,4.92587-2.62398c17.61589-5.11037,47.98438-13.37964,63.15462-11.84254
		c14.21307,1.85132,27.78887,4.48955,30.86378,11.18112c1.42558,3.08676,1.06126,5.48738,0.51055,6.94637
		c-1.71954,4.5719-6.53667,7.80688-12.02656,9.65213c-0.59808,0.20029-1.87917-0.01537-2.47063,0.15364
		c-0.21824,0.04005,0.42851-0.13295-1.1601,0.53896c-0.34102,0.16261-3.80326,0.32959-5.78351,5.25406
		c-0.00834,0.02074-0.01068,0.04504-0.00623,0.06694c0.72676,3.57619,3.47253,5.69632,5.5422,6.57103
		c4.93285,2.0836,10.91079,3.56041,15.3336,4.2547c10.46468,1.64627,17.75351,4.6033,30.10669,2.6091
		c11.31407-1.84149,22.38644-4.95016,34.09538-8.22481c4.88756-1.37782,9.93095-2.78149,14.97192-4.08107
		c12.58679-3.25227,26.86552-6.93092,41.68442-9.33154c5.27437-0.85793,10.33932-1.49869,15.03543-1.91023
		c17.01004-1.4792,38.72198-0.91945,46.04718,9.9994c2.82071,4.18619,5.73712,7.6927,5.08408,9.66611
		c-2.20175,6.63376,0.71585,4.14182-8.42966,8.76239c-4.75156,1.1059-17.24014,4.24619-20.89911,5.68793
		c-4.36716,1.72986-6.55481,3.61694-6.7312,4.35757l-0.06982,0.29901l0.03424,0.30145
		c0.11301,0.88687-1.39102-0.34674,0.11301,0.88687c1.9549,11.50754,72.8974-4.43958,76.90332-6.05151
		c2.63898-0.42203,1.17432-0.62512,2.34879-0.76877c36.03589-10.74319,133.35718-58.01671,156.54892-47.20538
		c0.11716,0.05463,42.63831,8.55319-5.18939,1.08041c-18.32047-2.86247-112.70721,44.61368-156.04465,51.64297
		c-1.36102,0.22186-13.10788,3.68912-14.46527,3.9248c-4.97885,1.13565-50.51068,13.52875-61.48587,4.59616
		c-2.34686-1.91541-3.80139-4.43298-4.18732-7.27353c-1.30447-9.31104,11.05002-12.20715,23.0032-14.99863
		c11.70044-2.74036,11.83762-3.92749,12.83737-6.95195c0.28952-0.8736-3.22876-5.36188-4.30975-6.95705
		c-5.58551-8.32784-26.59454-6.18068-40.49933-4.97908c-4.58179,0.39653-9.50113,1.02888-14.66118,1.87178
		c-14.62154,2.36395-28.32869,7.50491-40.83606,10.72169c-4.97177,1.28154-10.9424,3.2578-15.81612,4.632
		c-11.20052,3.12729-23.89511,6.62088-35.63518,8.52911c-12.8622,2.08258-23.38998-2.526-34.19521-4.23129
		c-15.37724-2.405-23.8056-4.66037-25.65131-11.22906c-3.43281-12.2589,14.18374-18.61096,16.20605-19.30083
		c1.76659-0.59363,4.72934-1.58781,6.79983-2.65974c1.31835-0.6689,2.02724-1.57793,2.09898-2.71989
		c0.08558-1.14557-0.50813-2.23227-1.75648-3.22217c-2.03525-1.62718-6.29469-3.49649-9.61216-4.65633"/>
	<path display="none" fill="#1D1D91" d="M-112.47018,244.79828c4.54453-3.05197,10.23001-7.54347,12.65821-10.79591
		c1.49256-1.98267,1.96038-3.85394,1.38118-5.547c-0.55693-1.69305-1.98267-2.78464-4.23264-3.27472
		c-3.54205-0.80199-8.39845-1.13614-11.29447-1.33662c-3.31928-0.24506-32.36858-2.89603-32.01214-22.72261
		c0.20049-10.62616,9.81142-24.51613,32.04393-34.18437c15.61623-6.81679,31.87981-10.72247,52.08511-12.63831
		c18.44541-1.73761,38.95258-1.46082,57.06383-1.14893c7.88608,0.15593,17.66211,0.78822,25.65957,0.76596
		c20.11619-0.06683,42.79701,2.29507,65.76466,0.11192c8.10886-0.75742,15.77216-1.73761,22.83399-2.94057
		c21.43054-3.65344,67.38812-15.95038,72.53412-30.6978c1.00247-2.82919,1.09158-4.90096,0.31189-6.10391
		c-2.69553-4.16582-13.36624-4.70046-32.07898-4.23264c-19.11372,0.4901-38.87347,0.98019-40.56654-13.56673
		c-0.53465-4.43314,0.66831-8.79944,3.45295-12.60882c13.03208-17.7771,30.68407-26.4721,104.18983-28.8488
		c2.1386-0.17822,4.29947-0.35643,6.43806-0.55693c69.74948-6.59401,116.19717-28.22504,140.61282-42.97246
		c-30.72006,26.15327-76.69992,43.59622-137.09305,51.95012c-1.82672,0.24505-4.78957,0.53465-8.93311,0.93564
		c-36.95764,3.58661-87.21471,10.11378-98.46462,25.46268c-1.78217,2.45048-1.82672,4.3663-1.6485,5.74748l0.06683,0.46782
		l0.22277,0.42326c0.55693,1.04702,4.59597,3.03159,11.85828,3.92267c6.08165,0.73514,29.96593-2.20734,37.56241-2.40784
		c17.95531-0.44554,15.45012,1.78217,21.37582,10.91577c1.75989,2.7178,3.34155,7.55193,0.73514,14.97018
		c-6.74995,19.3365-52.90802,32.0567-79.12813,36.51212c-7.24005,1.22523-15.12613,2.24998-23.4132,3.02968
		c-23.27953,2.20543-46.24718,2.27226-66.49704,2.31682c-8.10885,0.02228-16.26226-0.11139-24.17062-0.26733
		c-18.9355-0.33415-36.84626-0.6683-54.62336,1.00247c-19.40332,1.849-35.50964,5.76976-50.63577,12.36377
		c-6.39352,2.78464-13.83406,6.32669-20.45035,11.40585c-2.78464,2.13861-8.53212,6.54947-8.19797,12.2524
		c0.51237,8.64349,17.95817,9.89755,18.53737,10.00888c2.65852,0.38843,1.6157,0.38184,1.96039,0.35645
		c0.95791,0.02228,2.80411-0.80621,3.78429-0.7394c8.99994,0.62376,17.53201,3.60664,21.92059,9.82195
		c1.40346,1.98265,2.89602,5.45789,1.96038,10.67072c-2.00493,11.29446-21.43053,20.60628-42.12592,28.98245
		c-22.3439,8.30936-48.16302,13.94543-76.72221,16.73007c2.85146-6.32669,42.50464-9.46774,59.19016-16.03949
		c12.03233-7.27208,26.26466-10.80437,38.49477-19.04688"/>
	<g display="none">
		<defs>
			<rect id="SVGID_3_" x="-213.425" y="-303.63232" width="273.74057" height="582.45612"/>
		</defs>
		<clipPath id="SVGID_1_" display="inline">
			<use xlink:href="#SVGID_3_"  overflow="visible"/>
		</clipPath>
	</g>
	<g>
		<path fill="#0A5CA0" d="M34.82786,199.82506l5.5761-13.44586c0.11108-0.26785-0.2004-0.51233-0.4342-0.34079l0,0
			c-0.19049,0.13976-0.4536,0.00276-0.45542-0.23349c-0.02856-3.7115-2.92189-11.44965-2.42696-15.5385
			c1.54387-12.90576,6.59887-28.79517,12.63764-43.17244c0.22515-0.55482,1.57077,8.21027,1.812,7.6474
			c0.20906-0.48245-1.32676-8.57972-1.10965-9.07022c7.51831-17.2881,17.94695-35.84219,27.63633-51.52209
			c0.36988-0.61111,1.72932,5.63224,2.10725,5.02917c0.35381-0.56287-1.80922-5.3955-1.46346-5.95033
			c19.44308-30.95776,41.19605-55.52578,41.19605-55.52578c-1.38304,35.58132-12.56213,67.37818-23.80342,94.09835
			l-20.0944,15.90505L96.03454,113.132c-13.77419,30.46727-31.15755,65.89104-43.4924,72.2997
			c-8.57168,4.44667-11.08851,14.76324-12.52784,17.50522c-2.70981,7.1243-5.38745,14.73911-7.38162,21.63826l-9.72154,2.99928
			L34.82786,199.82506"/>
		<path fill="#1183C9" d="M109.80997,36.90681c-1.37501,2.54095-20.32759,37.12519-35.80647,68.43675L53.58746,151.7963
			l-19.2501,47.24074l-11.42623,28.52939l4.35031-1.80551C39.05755,173.39807,113.12286,30.81175,109.80997,36.90681"/>
	</g>
</g>
<g id="Layer_2">
	<g>
		<rect x="175.15958" y="49.78724" fill="none" width="842" height="504"/>
		<path d="M193.85555,219.52446V49.78422h104.05809v24.8457h-75.52196v48.70801h68.14207v24.60059h-68.14207v71.58594H193.85555z"/>
		<path d="M365.06989,76.59867h-28.78174V49.78422h28.78174V76.59867z M363.84039,219.52446h-26.32227V96.52445h26.32227V219.52446z
			"/>
		<path d="M437.39215,219.52446h-26.32129V96.52445h25.8291v11.06934c6.55762-8.85547,16.72852-13.2832,30.50488-13.2832
			c14.10254,0,25.0918,3.97754,32.96387,11.93066c7.87207,7.95605,11.80762,20.04883,11.80762,36.28516v76.99805h-26.07617v-74.0459
			c0-18.53126-7.79102-27.79884-23.37012-27.79884c-7.87207,0-14.06348,2.50293-18.57227,7.50391
			c-4.5127,5.00391-6.76562,11.68458-6.76562,20.04884V219.52446z"/>
		<path d="M629.2691,105.13383V49.78422h26.07617v169.74023H629.2691v-8.61035c-6.8877,7.21875-16.72852,10.82422-29.52051,10.82422
			c-15.58203,0-27.63574-5.00098-36.16113-15.00586c-8.5293-10.00195-12.79199-23.53125-12.79199-40.58984v-16.72852
			c0-17.38086,4.34277-30.91114,13.03711-40.58985c8.69141-9.6748,20.66406-14.51367,35.91602-14.51367
			C612.54059,94.31059,622.38141,97.91996,629.2691,105.13383z M603.19293,199.10649
			c17.38184,0,26.07617-11.39746,26.07617-34.19434v-15.74414c0-10.16699-2.25684-18.03809-6.76465-23.61622
			c-4.5127-5.57324-10.94727-8.36328-19.31152-8.36328c-17.55078,0-26.32227,11.1543-26.32227,33.45606v14.26758
			c0,10.66309,2.21484,19.02637,6.64258,25.0918C587.94098,196.07329,594.4986,199.10649,603.19293,199.10649z"/>
	</g>
	<g>
		<path d="M896.85309,104.63871h-27.55273c-4.26758-20.00586-15.66406-30.01172-34.19336-30.01172
			c-11.80859,0-20.58398,4.14355-26.32227,12.42285c-5.74219,8.2832-8.61133,21.2793-8.61133,38.99121v21.64845
			c0,34.27832,11.64258,51.41406,34.93359,51.41406c9.67383,0,17.21875-2.41797,22.63086-7.25781
			c5.41211-4.83496,9.26367-12.42285,11.5625-22.75488h27.30664c-5.41211,36.57324-25.91602,54.8584-61.5,54.8584
			c-20.17383,0-35.79297-6.39648-46.86426-19.18848c-11.07031-12.79199-16.60449-31.81445-16.60449-57.07129v-21.64845
			c0-25.25293,5.53418-44.28027,16.60449-57.07227c11.07129-12.79199,26.69043-19.1875,46.86426-19.1875
			c17.21875,0,31.11719,4.63574,41.69531,13.89844C887.38043,72.9473,894.06207,86.60062,896.85309,104.63871z"/>
		<path d="M996.23395,159.74321h-29.27344v61.99219h-28.53613V51.99516h57.80957c19.8418,0,35.21686,4.63574,46.12506,13.89941
			c10.90527,9.2666,16.35938,22.50879,16.35938,39.72852s-5.49707,30.54591-16.48242,39.97462
			C1031.2467,155.03032,1015.91364,159.74321,996.23395,159.74321z M966.96051,76.84086v58.30274h26.32129
			c24.60059,0,36.90045-9.84083,36.90045-29.52052c0-19.1875-12.29987-28.78223-36.90045-28.78223H966.96051z"/>
		<path d="M1156.13049,221.7354h-57.31738V51.99516h57.31738c42.47363,0,63.71387,24.93066,63.71387,74.78418v20.17188
			C1219.84436,196.80864,1198.60413,221.7354,1156.13049,221.7354z M1127.34924,197.13481h28.78125
			c12.13477,0,21.0332-4.0166,26.69141-12.05371c5.6582-8.0332,8.4873-20.74512,8.4873-38.12988v-20.17188
			c0-17.38184-2.8291-30.05078-8.4873-38.00684c-5.6582-7.95312-14.55664-11.93164-26.69141-11.93164h-28.78125V197.13481z"/>
	</g>
	<g>
	</g>
	<g>
	</g>
	<g>
	</g>
	<g>
	</g>
	<g>
	</g>
	<g>
	</g>
</g>
</svg>
