<?xml version="1.0" standalone="no"?>
<!DOCTYPE svg PUBLIC "-//W3C//DTD SVG 20010904//EN"
 "http://www.w3.org/TR/2001/REC-SVG-20010904/DTD/svg10.dtd">
<svg version="1.0" xmlns="http://www.w3.org/2000/svg"
 width="700.000000pt" height="700.000000pt" viewBox="0 0 700.000000 700.000000"
 preserveAspectRatio="xMidYMid meet">
<metadata>
Created by potrace 1.14, written by Peter Selinger 2001-2017
</metadata>
<g transform="translate(0.000000,700.000000) scale(0.100000,-0.100000)"
fill="#000000" stroke="none">
<path d="M3253 6678 c-100 -121 -160 -195 -253 -311 -8 -11 -21 -25 -28 -33
-7 -7 -101 -131 -210 -276 -228 -304 -397 -543 -577 -818 l-128 -195 11 -50
c6 -27 18 -72 26 -98 8 -26 12 -46 8 -43 -5 3 -19 39 -32 80 -13 42 -26 76
-30 76 -10 0 -283 -457 -383 -640 -22 -41 -49 -91 -60 -110 -94 -165 -326
-624 -406 -803 -36 -83 -51 -127 -47 -145 3 -15 8 -45 11 -67 3 -22 7 -51 10
-65 9 -52 16 -124 11 -120 -3 3 -7 17 -9 30 -26 143 -42 209 -48 203 -11 -13
-114 -278 -167 -433 -171 -494 -266 -938 -232 -1090 5 -25 21 -99 36 -165 41
-191 41 -199 0 -301 -150 -371 -503 -1249 -502 -1250 1 -2 185 22 246 31 217
33 503 107 677 175 126 50 296 139 357 186 72 57 107 111 107 167 0 57 -3 68
-29 104 -47 66 -144 103 -282 107 -196 6 -287 75 -235 176 60 115 451 295 730
335 23 3 50 7 62 9 12 3 50 7 85 11 35 3 86 8 113 11 56 5 187 6 810 5 237 0
464 1 505 3 80 4 246 15 295 20 17 2 64 7 105 11 41 4 78 9 81 11 4 2 28 6 55
9 42 4 93 14 209 40 11 3 31 7 45 10 53 10 239 68 315 98 169 66 312 156 359
227 52 78 59 180 17 239 -12 16 -21 33 -21 38 -1 26 -51 66 -91 74 -47 9 -200
5 -320 -8 -114 -12 -289 -10 -336 5 -55 16 -69 41 -47 83 29 57 95 103 215
149 59 22 214 66 267 75 18 3 63 12 100 19 37 8 94 17 127 21 32 3 62 8 65 10
3 2 34 6 70 10 36 4 79 9 95 11 17 2 53 6 80 9 28 3 70 7 95 10 25 3 66 7 92
10 52 5 91 11 188 27 36 6 74 12 86 13 95 13 406 89 536 131 308 99 535 210
747 363 94 68 98 76 13 29 -172 -96 -358 -177 -572 -248 -126 -42 -315 -96
-370 -105 -19 -3 -43 -8 -52 -11 -16 -5 -43 -11 -83 -19 -56 -11 -257 -44
-305 -50 -30 -3 -66 -8 -80 -10 -37 -6 -161 -14 -280 -20 -165 -7 -349 -21
-410 -30 -14 -2 -59 -9 -100 -14 -259 -36 -409 -98 -524 -214 -82 -82 -109
-132 -109 -198 1 -89 46 -137 154 -165 50 -13 124 -17 339 -19 232 -2 281 -5
313 -19 45 -20 52 -33 42 -83 -19 -102 -246 -224 -580 -313 -132 -35 -289 -67
-368 -75 -32 -4 -67 -8 -78 -10 -101 -20 -355 -23 -819 -10 -513 14 -956 10
-1059 -10 -13 -2 -49 -7 -80 -11 -144 -16 -385 -87 -516 -152 -340 -168 -435
-443 -199 -576 37 -20 82 -36 149 -52 33 -8 37 -8 139 -18 87 -8 136 -28 136
-55 0 -84 -153 -197 -415 -306 -38 -16 -98 -44 -131 -62 -58 -31 -186 -67
-344 -97 -70 -14 -71 -14 -65 8 30 102 110 344 166 496 90 247 160 409 216
499 52 83 148 183 212 221 138 82 211 146 327 290 78 97 205 282 284 415 29
50 61 102 72 117 10 15 18 29 18 32 0 2 16 33 36 68 49 85 92 166 149 273 26
50 52 96 59 104 6 8 11 17 10 20 0 3 64 137 142 296 78 160 176 367 219 460
42 94 89 196 105 228 l29 58 -27 -17 c-15 -10 -67 -47 -117 -84 -49 -36 -128
-94 -175 -128 -47 -34 -89 -65 -95 -69 -38 -31 -115 -84 -115 -79 0 3 24 23
53 45 120 90 473 374 480 386 12 22 172 422 227 570 58 156 171 485 200 585
11 36 29 97 40 135 20 67 58 204 65 235 2 8 17 69 34 135 42 169 56 233 96
450 25 136 29 162 46 285 6 41 12 85 14 98 2 13 7 53 10 90 4 37 8 81 11 97 7
61 17 335 11 335 -3 0 -59 -64 -124 -142z"/>
</g>
</svg>
